<svg width="20" height="18" viewBox="0 0 20 18" fill="none" xmlns="http://www.w3.org/2000/svg">
<path d="M15.625 1.5C14.7962 1.5 14.0013 1.82924 13.4153 2.41529C12.8292 3.00134 12.5 3.7962 12.5 4.625C12.5 4.79076 12.4342 4.94973 12.3169 5.06694C12.1997 5.18415 12.0408 5.25 11.875 5.25C11.7092 5.25 11.5503 5.18415 11.4331 5.06694C11.3158 4.94973 11.25 4.79076 11.25 4.625C11.25 3.75971 11.5066 2.91385 11.9873 2.19438C12.4681 1.47492 13.1513 0.914162 13.9508 0.583029C14.7502 0.251896 15.6299 0.165256 16.4785 0.334066C17.3272 0.502877 18.1067 0.919555 18.7186 1.53141C19.3304 2.14326 19.7471 2.92281 19.9159 3.77148C20.0847 4.62015 19.9981 5.49982 19.667 6.29924C19.3358 7.09867 18.7751 7.78195 18.0556 8.26268C17.3362 8.74341 16.4903 9 15.625 9H0.625C0.45924 9 0.300269 8.93415 0.183058 8.81694C0.065848 8.69973 0 8.54076 0 8.375C0 8.20924 0.065848 8.05027 0.183058 7.93306C0.300269 7.81585 0.45924 7.75 0.625 7.75H15.625C16.4538 7.75 17.2487 7.42076 17.8347 6.83471C18.4208 6.24866 18.75 5.4538 18.75 4.625C18.75 3.7962 18.4208 3.00134 17.8347 2.41529C17.2487 1.82924 16.4538 1.5 15.625 1.5ZM6.875 2.75C6.54348 2.75 6.22554 2.8817 5.99112 3.11612C5.7567 3.35054 5.625 3.66848 5.625 4C5.625 4.16576 5.55915 4.32473 5.44194 4.44194C5.32473 4.55915 5.16576 4.625 5 4.625C4.83424 4.625 4.67527 4.55915 4.55806 4.44194C4.44085 4.32473 4.375 4.16576 4.375 4C4.375 3.50555 4.52162 3.0222 4.79633 2.61108C5.07103 2.19995 5.46148 1.87952 5.91829 1.6903C6.37511 1.50108 6.87777 1.45158 7.36273 1.54804C7.84768 1.6445 8.29314 1.8826 8.64277 2.23223C8.9924 2.58187 9.2305 3.02732 9.32696 3.51228C9.42343 3.99723 9.37392 4.4999 9.1847 4.95671C8.99548 5.41353 8.67505 5.80397 8.26393 6.07868C7.8528 6.35338 7.36945 6.5 6.875 6.5H0.625C0.45924 6.5 0.300269 6.43415 0.183058 6.31694C0.065848 6.19973 0 6.04076 0 5.875C0 5.70924 0.065848 5.55027 0.183058 5.43306C0.300269 5.31585 0.45924 5.25 0.625 5.25H6.875C7.20652 5.25 7.52446 5.11831 7.75888 4.88388C7.9933 4.64946 8.125 4.33152 8.125 4C8.125 3.66848 7.9933 3.35054 7.75888 3.11612C7.52446 2.8817 7.20652 2.75 6.875 2.75ZM0 10.875C0 10.7092 0.065848 10.5503 0.183058 10.4331C0.300269 10.3159 0.45924 10.25 0.625 10.25H13.1775C13.9192 10.25 14.6442 10.4699 15.2609 10.882C15.8776 11.294 16.3582 11.8797 16.642 12.5649C16.9259 13.2502 17.0001 14.0042 16.8554 14.7316C16.7108 15.459 16.3536 16.1272 15.8292 16.6517C15.3047 17.1761 14.6365 17.5333 13.9091 17.6779C13.1817 17.8226 12.4277 17.7484 11.7424 17.4646C11.0572 17.1807 10.4715 16.7001 10.0595 16.0834C9.64743 15.4667 9.4275 14.7417 9.4275 14C9.4275 13.8342 9.49335 13.6753 9.61056 13.5581C9.72777 13.4409 9.88674 13.375 10.0525 13.375C10.2183 13.375 10.3772 13.4409 10.4944 13.5581C10.6117 13.6753 10.6775 13.8342 10.6775 14C10.6775 14.4945 10.8241 14.9778 11.0988 15.3889C11.3735 15.8001 11.764 16.1205 12.2208 16.3097C12.6776 16.4989 13.1803 16.5484 13.6652 16.452C14.1502 16.3555 14.5956 16.1174 14.9453 15.7678C15.2949 15.4181 15.533 14.9727 15.6295 14.4877C15.7259 14.0028 15.6764 13.5001 15.4872 13.0433C15.298 12.5865 14.9775 12.196 14.5664 11.9213C14.1553 11.6466 13.672 11.5 13.1775 11.5H0.625C0.45924 11.5 0.300269 11.4342 0.183058 11.3169C0.065848 11.1997 0 11.0408 0 10.875Z" fill="#101828"/>
</svg>
