<svg width="20" height="16" viewBox="0 0 20 16" fill="none" xmlns="http://www.w3.org/2000/svg">
<path fill-rule="evenodd" clip-rule="evenodd" d="M7.5 2.375C7.5 1.87772 7.69754 1.40081 8.04917 1.04917C8.40081 0.697544 8.87772 0.5 9.375 0.5H10.625C11.1223 0.5 11.5992 0.697544 11.9508 1.04917C12.3025 1.40081 12.5 1.87772 12.5 2.375V3.625C12.5 4.12228 12.3025 4.59919 11.9508 4.95083C11.5992 5.30246 11.1223 5.5 10.625 5.5V6.75H17.5C17.6658 6.75 17.8247 6.81585 17.9419 6.93306C18.0592 7.05027 18.125 7.20924 18.125 7.375V8.625C18.125 8.79076 18.0592 8.94973 17.9419 9.06694C17.8247 9.18415 17.6658 9.25 17.5 9.25C17.3342 9.25 17.1753 9.18415 17.0581 9.06694C16.9408 8.94973 16.875 8.79076 16.875 8.625V8H10.625V8.625C10.625 8.79076 10.5592 8.94973 10.4419 9.06694C10.3247 9.18415 10.1658 9.25 10 9.25C9.83424 9.25 9.67527 9.18415 9.55806 9.06694C9.44085 8.94973 9.375 8.79076 9.375 8.625V8H3.125V8.625C3.125 8.79076 3.05915 8.94973 2.94194 9.06694C2.82473 9.18415 2.66576 9.25 2.5 9.25C2.33424 9.25 2.17527 9.18415 2.05806 9.06694C1.94085 8.94973 1.875 8.79076 1.875 8.625V7.375C1.875 7.20924 1.94085 7.05027 2.05806 6.93306C2.17527 6.81585 2.33424 6.75 2.5 6.75H9.375V5.5C8.87772 5.5 8.40081 5.30246 8.04917 4.95083C7.69754 4.59919 7.5 4.12228 7.5 3.625V2.375ZM10.625 4.25C10.7908 4.25 10.9497 4.18415 11.0669 4.06694C11.1842 3.94973 11.25 3.79076 11.25 3.625V2.375C11.25 2.20924 11.1842 2.05027 11.0669 1.93306C10.9497 1.81585 10.7908 1.75 10.625 1.75H9.375C9.20924 1.75 9.05027 1.81585 8.93306 1.93306C8.81585 2.05027 8.75 2.20924 8.75 2.375V3.625C8.75 3.79076 8.81585 3.94973 8.93306 4.06694C9.05027 4.18415 9.20924 4.25 9.375 4.25H10.625ZM0 12.375C0 11.8777 0.197544 11.4008 0.549175 11.0492C0.900805 10.6975 1.37772 10.5 1.875 10.5H3.125C3.62228 10.5 4.09919 10.6975 4.45083 11.0492C4.80246 11.4008 5 11.8777 5 12.375V13.625C5 14.1223 4.80246 14.5992 4.45083 14.9508C4.09919 15.3025 3.62228 15.5 3.125 15.5H1.875C1.37772 15.5 0.900805 15.3025 0.549175 14.9508C0.197544 14.5992 0 14.1223 0 13.625L0 12.375ZM1.875 11.75C1.70924 11.75 1.55027 11.8158 1.43306 11.9331C1.31585 12.0503 1.25 12.2092 1.25 12.375V13.625C1.25 13.7908 1.31585 13.9497 1.43306 14.0669C1.55027 14.1842 1.70924 14.25 1.875 14.25H3.125C3.29076 14.25 3.44973 14.1842 3.56694 14.0669C3.68415 13.9497 3.75 13.7908 3.75 13.625V12.375C3.75 12.2092 3.68415 12.0503 3.56694 11.9331C3.44973 11.8158 3.29076 11.75 3.125 11.75H1.875ZM7.5 12.375C7.5 11.8777 7.69754 11.4008 8.04917 11.0492C8.40081 10.6975 8.87772 10.5 9.375 10.5H10.625C11.1223 10.5 11.5992 10.6975 11.9508 11.0492C12.3025 11.4008 12.5 11.8777 12.5 12.375V13.625C12.5 14.1223 12.3025 14.5992 11.9508 14.9508C11.5992 15.3025 11.1223 15.5 10.625 15.5H9.375C8.87772 15.5 8.40081 15.3025 8.04917 14.9508C7.69754 14.5992 7.5 14.1223 7.5 13.625V12.375ZM9.375 11.75C9.20924 11.75 9.05027 11.8158 8.93306 11.9331C8.81585 12.0503 8.75 12.2092 8.75 12.375V13.625C8.75 13.7908 8.81585 13.9497 8.93306 14.0669C9.05027 14.1842 9.20924 14.25 9.375 14.25H10.625C10.7908 14.25 10.9497 14.1842 11.0669 14.0669C11.1842 13.9497 11.25 13.7908 11.25 13.625V12.375C11.25 12.2092 11.1842 12.0503 11.0669 11.9331C10.9497 11.8158 10.7908 11.75 10.625 11.75H9.375ZM15 12.375C15 11.8777 15.1975 11.4008 15.5492 11.0492C15.9008 10.6975 16.3777 10.5 16.875 10.5H18.125C18.6223 10.5 19.0992 10.6975 19.4508 11.0492C19.8025 11.4008 20 11.8777 20 12.375V13.625C20 14.1223 19.8025 14.5992 19.4508 14.9508C19.0992 15.3025 18.6223 15.5 18.125 15.5H16.875C16.3777 15.5 15.9008 15.3025 15.5492 14.9508C15.1975 14.5992 15 14.1223 15 13.625V12.375ZM16.875 11.75C16.7092 11.75 16.5503 11.8158 16.4331 11.9331C16.3158 12.0503 16.25 12.2092 16.25 12.375V13.625C16.25 13.7908 16.3158 13.9497 16.4331 14.0669C16.5503 14.1842 16.7092 14.25 16.875 14.25H18.125C18.2908 14.25 18.4497 14.1842 18.5669 14.0669C18.6842 13.9497 18.75 13.7908 18.75 13.625V12.375C18.75 12.2092 18.6842 12.0503 18.5669 11.9331C18.4497 11.8158 18.2908 11.75 18.125 11.75H16.875Z" fill="#101828"/>
</svg>
