<svg width="20" height="18" viewBox="0 0 20 18" fill="none" xmlns="http://www.w3.org/2000/svg">
<path d="M5 16.4375C5 16.6229 4.94502 16.8042 4.842 16.9583C4.73899 17.1125 4.59257 17.2327 4.42127 17.3036C4.24996 17.3746 4.06146 17.3932 3.8796 17.357C3.69775 17.3208 3.5307 17.2315 3.39959 17.1004C3.26848 16.9693 3.17919 16.8023 3.14301 16.6204C3.10684 16.4385 3.12541 16.25 3.19636 16.0787C3.26732 15.9074 3.38748 15.761 3.54165 15.658C3.69582 15.555 3.87708 15.5 4.0625 15.5C4.31114 15.5 4.5496 15.5988 4.72541 15.7746C4.90123 15.9504 5 16.1889 5 16.4375ZM6.5625 13C6.37708 13 6.19582 13.055 6.04165 13.158C5.88748 13.261 5.76732 13.4074 5.69636 13.5787C5.62541 13.75 5.60684 13.9385 5.64301 14.1204C5.67919 14.3023 5.76848 14.4693 5.89959 14.6004C6.0307 14.7315 6.19775 14.8208 6.3796 14.857C6.56146 14.8932 6.74996 14.8746 6.92127 14.8036C7.09257 14.7327 7.23899 14.6125 7.342 14.4583C7.44502 14.3042 7.5 14.1229 7.5 13.9375C7.5 13.6889 7.40123 13.4504 7.22541 13.2746C7.0496 13.0988 6.81114 13 6.5625 13ZM1.5625 13C1.37708 13 1.19582 13.055 1.04165 13.158C0.887482 13.261 0.767321 13.4074 0.696363 13.5787C0.625406 13.75 0.606841 13.9385 0.643014 14.1204C0.679188 14.3023 0.768476 14.4693 0.899588 14.6004C1.0307 14.7315 1.19775 14.8208 1.3796 14.857C1.56146 14.8932 1.74996 14.8746 1.92127 14.8036C2.09257 14.7327 2.23899 14.6125 2.342 14.4583C2.44502 14.3042 2.5 14.1229 2.5 13.9375C2.5 13.6889 2.40123 13.4504 2.22541 13.2746C2.0496 13.0988 1.81114 13 1.5625 13ZM4.0625 10.5C3.87708 10.5 3.69582 10.555 3.54165 10.658C3.38748 10.761 3.26732 10.9074 3.19636 11.0787C3.12541 11.25 3.10684 11.4385 3.14301 11.6204C3.17919 11.8023 3.26848 11.9693 3.39959 12.1004C3.5307 12.2315 3.69775 12.3208 3.8796 12.357C4.06146 12.3932 4.24996 12.3746 4.42127 12.3036C4.59257 12.2327 4.73899 12.1125 4.842 11.9583C4.94502 11.8042 5 11.6229 5 11.4375C5 11.1889 4.90123 10.9504 4.72541 10.7746C4.5496 10.5988 4.31114 10.5 4.0625 10.5ZM20 1.125C20 1.29076 19.9342 1.44973 19.8169 1.56694C19.6997 1.68415 19.5408 1.75 19.375 1.75H17.1336L14.9578 3.92656L13.2656 13.832C13.2275 14.0583 13.1279 14.2698 12.9776 14.4432C12.8273 14.6166 12.6322 14.7453 12.4136 14.8152C12.195 14.8851 11.9614 14.8934 11.7384 14.8394C11.5153 14.7853 11.3115 14.6708 11.1492 14.5086L3.49297 6.85234C3.33047 6.68992 3.21588 6.48585 3.16179 6.26255C3.1077 6.03925 3.1162 5.80536 3.18636 5.58658C3.25652 5.3678 3.38561 5.17258 3.55947 5.02238C3.73333 4.87218 3.94522 4.7728 4.17188 4.73516L14.0734 3.04219L16.4328 0.682813C16.4909 0.624791 16.5598 0.578782 16.6357 0.547415C16.7116 0.516047 16.7929 0.499936 16.875 0.5H19.375C19.5408 0.5 19.6997 0.565848 19.8169 0.683059C19.9342 0.800269 20 0.95924 20 1.125ZM13.6102 4.38984L4.375 5.96875L12.0312 13.625L13.6102 4.38984Z" fill="#101828"/>
</svg>
