<svg width="20" height="20" viewBox="0 0 20 20" fill="none" xmlns="http://www.w3.org/2000/svg">
<path fill-rule="evenodd" clip-rule="evenodd" d="M0.624998 7.5C0.531477 7.50004 0.439157 7.52106 0.354842 7.56152C0.270527 7.60198 0.196366 7.66085 0.137827 7.73378C0.0792885 7.80672 0.0378632 7.89186 0.016605 7.98293C-0.00465315 8.074 -0.00520222 8.16869 0.0149983 8.26L2.08 17.5525C2.23414 18.2466 2.62034 18.8673 3.17485 19.3123C3.72936 19.7573 4.41903 19.9998 5.13 20H12.37C13.081 19.9998 13.7706 19.7573 14.3251 19.3123C14.8797 18.8673 15.2659 18.2466 15.42 17.5525L15.5837 16.815C16.5399 16.9938 17.5281 16.7941 18.3398 16.2581C19.1515 15.722 19.7231 14.8915 19.934 13.9419C20.1449 12.9923 19.9785 11.9979 19.47 11.1686C18.9615 10.3394 18.1507 9.74018 17.2087 9.4975L17.485 8.26C17.5052 8.16869 17.5047 8.074 17.4834 7.98293C17.4621 7.89186 17.4207 7.80672 17.3622 7.73378C17.3036 7.66085 17.2295 7.60198 17.1452 7.56152C17.0608 7.52106 16.9685 7.50004 16.875 7.5H0.624998ZM16.25 15.625C16.1177 15.6251 15.9856 15.6146 15.855 15.5938L16.9387 10.7212C17.5169 10.8887 18.0152 11.259 18.3424 11.7642C18.6695 12.2694 18.8036 12.8756 18.7198 13.4717C18.6361 14.0677 18.3403 14.6135 17.8866 15.0091C17.433 15.4046 16.8519 15.6233 16.25 15.625ZM3.3 17.2812L1.40375 8.75H16.0962L14.2 17.2812C14.1076 17.6977 13.8759 18.0702 13.5432 18.3373C13.2104 18.6043 12.7966 18.7499 12.37 18.75H5.13C4.70338 18.7499 4.28955 18.6043 3.95684 18.3373C3.62413 18.0702 3.39243 17.6977 3.3 17.2812Z" fill="#101828"/>
<path d="M5.5 1.00005L5.49625 1.00505L5.47875 1.0288C5.3878 1.15395 5.30271 1.28326 5.22375 1.4163C5.15667 1.52295 5.09776 1.63452 5.0475 1.75005C5.015 1.82505 5.005 1.86505 5.00125 1.8788V1.8838C5.01567 1.9943 5.05452 2.1002 5.115 2.1938C5.20875 2.36005 5.3375 2.5338 5.5 2.75005L5.5125 2.76505C5.66 2.96255 5.8375 3.1988 5.975 3.4438C6.115 3.6938 6.25 4.01255 6.25 4.37505C6.25 4.61005 6.16875 4.83505 6.10125 4.99255C6.029 5.16015 5.94461 5.32225 5.84875 5.47755C5.75069 5.64147 5.64516 5.8008 5.5325 5.95505L5.51 5.9863L5.50375 5.9963L5.50125 5.9988C5.40196 6.13158 5.25399 6.21947 5.0899 6.24315C4.9258 6.26682 4.75902 6.22434 4.62625 6.12505C4.49348 6.02576 4.40558 5.87779 4.38191 5.7137C4.35823 5.5496 4.40071 5.38283 4.5 5.25005L4.50375 5.24505L4.52125 5.2213C4.6122 5.09615 4.69729 4.96685 4.77625 4.8338C4.84333 4.72715 4.90224 4.61558 4.9525 4.50005C4.985 4.42505 4.995 4.38505 4.99875 4.3713C4.98544 4.25917 4.94698 4.15149 4.88625 4.0563C4.77022 3.86237 4.64117 3.67653 4.5 3.50005L4.4875 3.48505C4.31862 3.26919 4.16412 3.04245 4.025 2.8063C3.85475 2.52471 3.76003 2.20396 3.75 1.87505C3.75 1.64005 3.83125 1.41505 3.89875 1.25755C3.9725 1.08505 4.06625 0.915052 4.15125 0.772552C4.25055 0.609417 4.35604 0.450135 4.4675 0.295052L4.49875 0.251303C4.59804 0.118529 4.74601 0.0306355 4.9101 0.00695907C5.0742 -0.0167174 5.24098 0.0257621 5.37375 0.125053C5.50652 0.224343 5.59442 0.372311 5.61809 0.536405C5.64177 0.7005 5.59929 0.867279 5.5 1.00005ZM9.25 1.00005L9.24625 1.00505L9.22875 1.0288C9.1378 1.15395 9.05271 1.28326 8.97375 1.4163C8.90667 1.52295 8.84776 1.63452 8.7975 1.75005C8.765 1.82505 8.755 1.86505 8.75125 1.8788V1.8838C8.76567 1.9943 8.80452 2.1002 8.865 2.1938C8.95875 2.36005 9.0875 2.5338 9.25 2.75005L9.2625 2.76505C9.41 2.96255 9.5875 3.1988 9.725 3.4438C9.865 3.6938 10 4.01255 10 4.37505C10 4.61005 9.91875 4.83505 9.85125 4.99255C9.779 5.16015 9.69461 5.32225 9.59875 5.47755C9.50069 5.64147 9.39516 5.8008 9.2825 5.95505L9.26 5.9863L9.25375 5.9963L9.25125 5.9988C9.15196 6.13158 9.00399 6.21947 8.8399 6.24315C8.6758 6.26682 8.50902 6.22434 8.37625 6.12505C8.24348 6.02576 8.15558 5.87779 8.13191 5.7137C8.10823 5.5496 8.15071 5.38283 8.25 5.25005L8.25375 5.24505L8.27125 5.2213C8.3622 5.09615 8.44729 4.96685 8.52625 4.8338C8.59333 4.72715 8.65224 4.61558 8.7025 4.50005C8.735 4.42505 8.745 4.38505 8.74875 4.3713C8.73544 4.25917 8.69698 4.15149 8.63625 4.0563C8.52022 3.86237 8.39117 3.67653 8.25 3.50005L8.2375 3.48505C8.06862 3.26919 7.91412 3.04245 7.775 2.8063C7.60475 2.52471 7.51003 2.20396 7.5 1.87505C7.5 1.64005 7.58125 1.41505 7.64875 1.25755C7.7225 1.08505 7.81625 0.915052 7.90125 0.772552C8.00055 0.609417 8.10604 0.450135 8.2175 0.295052L8.24875 0.251303C8.34804 0.118529 8.49601 0.0306355 8.6601 0.00695906C8.8242 -0.0167174 8.99098 0.0257621 9.12375 0.125052C9.25652 0.224343 9.34442 0.372311 9.36809 0.536405C9.39177 0.7005 9.34929 0.867279 9.25 1.00005ZM13 1.00005L12.9963 1.00505L12.9788 1.0288C12.8878 1.15395 12.8027 1.28326 12.7238 1.4163C12.6567 1.52295 12.5978 1.63452 12.5475 1.75005C12.515 1.82505 12.505 1.86505 12.5013 1.8788V1.8838C12.5157 1.9943 12.5545 2.1002 12.615 2.1938C12.7087 2.36005 12.8375 2.5338 13 2.75005L13.0125 2.76505C13.16 2.96255 13.3375 3.1988 13.475 3.4438C13.615 3.6938 13.75 4.01255 13.75 4.37505C13.75 4.61005 13.6687 4.83505 13.6012 4.99255C13.529 5.16015 13.4446 5.32225 13.3488 5.47755C13.2511 5.64144 13.146 5.80078 13.0338 5.95505L13.01 5.9863L13.0037 5.9963L13.0013 5.9988C12.902 6.13158 12.754 6.21947 12.5899 6.24315C12.4258 6.26682 12.259 6.22434 12.1263 6.12505C11.9935 6.02576 11.9056 5.87779 11.8819 5.7137C11.8582 5.5496 11.9007 5.38283 12 5.25005L12.0037 5.24505L12.0212 5.2213C12.1122 5.09615 12.1973 4.96685 12.2762 4.8338C12.3433 4.72715 12.4022 4.61558 12.4525 4.50005C12.485 4.42505 12.495 4.38505 12.4987 4.3713C12.4854 4.25917 12.447 4.15149 12.3863 4.0563C12.2702 3.86237 12.1412 3.67653 12 3.50005L11.9875 3.48505C11.8186 3.26919 11.6641 3.04245 11.525 2.8063C11.3547 2.52471 11.26 2.20396 11.25 1.87505C11.25 1.64005 11.3313 1.41505 11.3988 1.25755C11.4725 1.08505 11.5663 0.915052 11.6512 0.772552C11.7505 0.609417 11.856 0.450135 11.9675 0.295052L11.9987 0.251303C12.098 0.118529 12.246 0.0306355 12.4101 0.00695906C12.5742 -0.0167174 12.741 0.0257621 12.8737 0.125052C13.0065 0.224343 13.0944 0.372311 13.1181 0.536405C13.1418 0.7005 13.0993 0.867279 13 1.00005Z" fill="#101828"/>
</svg>
