<svg width="18" height="17" viewBox="0 0 18 17" fill="none" xmlns="http://www.w3.org/2000/svg">
<path d="M15.6667 1.33331H2.33335C1.41288 1.33331 0.666687 2.07951 0.666687 2.99998V12.1666C0.666687 13.0871 1.41288 13.8333 2.33335 13.8333H15.6667C16.5872 13.8333 17.3334 13.0871 17.3334 12.1666V2.99998C17.3334 2.07951 16.5872 1.33331 15.6667 1.33331Z" stroke="#101828" stroke-width="1.25" stroke-linecap="round" stroke-linejoin="round"/>
<path d="M9.83333 4.66669H4.83333C4.3731 4.66669 4 5.03978 4 5.50002V9.66669C4 10.1269 4.3731 10.5 4.83333 10.5H9.83333C10.2936 10.5 10.6667 10.1269 10.6667 9.66669V5.50002C10.6667 5.03978 10.2936 4.66669 9.83333 4.66669Z" stroke="#101828" stroke-width="1.25" stroke-linecap="round" stroke-linejoin="round"/>
<path d="M14 4.66669V10.5M4 13.8334V15.5M14 13.8334V15.5" stroke="#101828" stroke-width="1.25" stroke-linecap="round" stroke-linejoin="round"/>
</svg>
