<svg width="19" height="18" viewBox="0 0 19 18" fill="none" xmlns="http://www.w3.org/2000/svg">
<path d="M8.75 2.125C8.75 1.95924 8.81585 1.80027 8.93306 1.68306C9.05027 1.56585 9.20924 1.5 9.375 1.5H18.125C18.2908 1.5 18.4497 1.56585 18.5669 1.68306C18.6842 1.80027 18.75 1.95924 18.75 2.125V3.375C18.75 3.54076 18.6842 3.69973 18.5669 3.81694C18.4497 3.93415 18.2908 4 18.125 4H9.375C9.20924 4 9.05027 3.93415 8.93306 3.81694C8.81585 3.69973 8.75 3.54076 8.75 3.375V2.125ZM5.58794e-08 14C5.58794e-08 13.0054 0.395088 12.0516 1.09835 11.3483C1.80161 10.6451 2.75544 10.25 3.75 10.25C4.74456 10.25 5.69839 10.6451 6.40165 11.3483C7.10491 12.0516 7.5 13.0054 7.5 14C7.5 14.9946 7.10491 15.9484 6.40165 16.6517C5.69839 17.3549 4.74456 17.75 3.75 17.75C2.75544 17.75 1.80161 17.3549 1.09835 16.6517C0.395088 15.9484 5.58794e-08 14.9946 5.58794e-08 14ZM8.75 12.125C8.75 11.9592 8.81585 11.8003 8.93306 11.6831C9.05027 11.5658 9.20924 11.5 9.375 11.5H18.125C18.2908 11.5 18.4497 11.5658 18.5669 11.6831C18.6842 11.8003 18.75 11.9592 18.75 12.125V13.375C18.75 13.5408 18.6842 13.6997 18.5669 13.8169C18.4497 13.9342 18.2908 14 18.125 14H9.375C9.20924 14 9.05027 13.9342 8.93306 13.8169C8.81585 13.6997 8.75 13.5408 8.75 13.375V12.125ZM8.75 5.875C8.75 5.70924 8.81585 5.55027 8.93306 5.43306C9.05027 5.31585 9.20924 5.25 9.375 5.25H15.625C15.7908 5.25 15.9497 5.31585 16.0669 5.43306C16.1842 5.55027 16.25 5.70924 16.25 5.875C16.25 6.04076 16.1842 6.19973 16.0669 6.31694C15.9497 6.43415 15.7908 6.5 15.625 6.5H9.375C9.20924 6.5 9.05027 6.43415 8.93306 6.31694C8.81585 6.19973 8.75 6.04076 8.75 5.875ZM8.75 15.875C8.75 15.7092 8.81585 15.5503 8.93306 15.4331C9.05027 15.3158 9.20924 15.25 9.375 15.25H15.625C15.7908 15.25 15.9497 15.3158 16.0669 15.4331C16.1842 15.5503 16.25 15.7092 16.25 15.875C16.25 16.0408 16.1842 16.1997 16.0669 16.3169C15.9497 16.4342 15.7908 16.5 15.625 16.5H9.375C9.20924 16.5 9.05027 16.4342 8.93306 16.3169C8.81585 16.1997 8.75 16.0408 8.75 15.875ZM3.75 0.25C3.25754 0.25 2.76991 0.346997 2.31494 0.535452C1.85997 0.723907 1.44657 1.00013 1.09835 1.34835C0.75013 1.69657 0.473907 2.10997 0.285452 2.56494C0.0969966 3.01991 0 3.50754 0 4C0 4.49246 0.0969966 4.98009 0.285452 5.43506C0.473907 5.89003 0.75013 6.30343 1.09835 6.65165C1.44657 6.99987 1.85997 7.27609 2.31494 7.46455C2.76991 7.653 3.25754 7.75 3.75 7.75C4.74456 7.75 5.69839 7.35491 6.40165 6.65165C7.10491 5.94839 7.5 4.99456 7.5 4C7.5 3.00544 7.10491 2.05161 6.40165 1.34835C5.69839 0.645088 4.74456 0.25 3.75 0.25ZM3.75 5.875C3.25272 5.875 2.77581 5.67746 2.42417 5.32583C2.07254 4.97419 1.875 4.49728 1.875 4C1.875 3.50272 2.07254 3.02581 2.42417 2.67417C2.77581 2.32254 3.25272 2.125 3.75 2.125C4.24728 2.125 4.72419 2.32254 5.07583 2.67417C5.42746 3.02581 5.625 3.50272 5.625 4C5.625 4.49728 5.42746 4.97419 5.07583 5.32583C4.72419 5.67746 4.24728 5.875 3.75 5.875Z" fill="#101828"/>
</svg>
