<svg width="20" height="20" viewBox="0 0 20 20" fill="none" xmlns="http://www.w3.org/2000/svg">
<path d="M14.7917 5.83331C14.7917 5.66755 14.7258 5.50858 14.6086 5.39137C14.4914 5.27416 14.3324 5.20831 14.1667 5.20831C14.0009 5.20831 13.8419 5.27416 13.7247 5.39137C13.6075 5.50858 13.5417 5.66755 13.5417 5.83331V7.49998C13.5417 7.66574 13.6075 7.82471 13.7247 7.94192C13.8419 8.05913 14.0009 8.12498 14.1667 8.12498C14.3324 8.12498 14.4914 8.05913 14.6086 7.94192C14.7258 7.82471 14.7917 7.66574 14.7917 7.49998V5.83331ZM14.7917 11.6666C14.7917 11.5009 14.7258 11.3419 14.6086 11.2247C14.4914 11.1075 14.3324 11.0416 14.1667 11.0416C14.0009 11.0416 13.8419 11.1075 13.7247 11.2247C13.6075 11.3419 13.5417 11.5009 13.5417 11.6666V13.3333C13.5417 13.4991 13.6075 13.658 13.7247 13.7753C13.8419 13.8925 14.0009 13.9583 14.1667 13.9583C14.3324 13.9583 14.4914 13.8925 14.6086 13.7753C14.7258 13.658 14.7917 13.4991 14.7917 13.3333V11.6666Z" fill="#101828"/>
<path fill-rule="evenodd" clip-rule="evenodd" d="M10.0467 1.04169H9.95334C8.42168 1.04169 7.20834 1.04169 6.25918 1.16919C5.28251 1.30085 4.49168 1.57752 3.86751 2.20085C3.24418 2.82502 2.96751 3.61585 2.83584 4.59252C2.70834 5.54252 2.70834 6.75502 2.70834 8.28669V10.88C2.70834 12.4117 2.70834 13.625 2.83584 14.5742C2.96751 15.5509 3.24418 16.3417 3.86751 16.9659C4.25084 17.3484 4.69584 17.6 5.20834 17.7684V18.3334C5.20834 18.6784 5.48834 18.9584 5.83334 18.9584H6.66668C6.83244 18.9584 6.99141 18.8925 7.10862 18.7753C7.22583 18.6581 7.29168 18.4991 7.29168 18.3334V18.0867C8.04751 18.125 8.92918 18.125 9.95334 18.125H10.0467C11.0717 18.125 11.9525 18.125 12.7083 18.0867V18.3334C12.7083 18.6784 12.9883 18.9584 13.3333 18.9584H14.1667C14.3324 18.9584 14.4914 18.8925 14.6086 18.7753C14.7258 18.6581 14.7917 18.4991 14.7917 18.3334V17.7684C15.3042 17.6 15.75 17.3484 16.1325 16.9659C16.7558 16.3417 17.0325 15.5509 17.1642 14.5742C17.2917 13.6242 17.2917 12.4117 17.2917 10.88V8.28752C17.2917 6.75585 17.2917 5.54252 17.1642 4.59335C17.0325 3.61669 16.7558 2.82585 16.1325 2.20169C15.5083 1.57835 14.7175 1.30169 13.7408 1.17002C12.7908 1.04252 11.5783 1.04252 10.0467 1.04252M4.75168 3.08502C5.10418 2.73252 5.58751 2.52085 6.42584 2.40835C7.28251 2.29335 8.41084 2.29169 10 2.29169C11.5892 2.29169 12.7183 2.29335 13.575 2.40835C14.4125 2.52085 14.8958 2.73252 15.2483 3.08502C15.6008 3.43752 15.8125 3.92085 15.925 4.75919C16.04 5.61585 16.0417 6.74419 16.0417 8.33335V8.95835H3.95834V8.33335C3.95834 6.74419 3.96001 5.61585 4.07501 4.75835C4.18751 3.92085 4.39918 3.43752 4.75168 3.08502ZM3.95834 10.2084H16.0417V10.8334C16.0417 12.4225 16.04 13.5517 15.925 14.4084C15.8125 15.2459 15.6008 15.7292 15.2483 16.0817C14.8958 16.4342 14.4125 16.6459 13.5742 16.7584C12.7175 16.8734 11.5892 16.875 10 16.875C8.41084 16.875 7.28251 16.8734 6.42501 16.7584C5.58751 16.6459 5.10418 16.4342 4.75168 16.0817C4.39918 15.7292 4.18751 15.2459 4.07501 14.4075C3.96001 13.5517 3.95834 12.4225 3.95834 10.8334V10.2084Z" fill="#101828"/>
</svg>
